<svg version="1.2" xmlns="http://www.w3.org/2000/svg" viewBox="0 0 566 235" width="566" height="235"><style></style><path  d="m109.2 121.7c8 12.2 15.8 24.3 23.9 36.8-1.3 0.1-2.2 0.3-3.1 0.3-6.5 0-12.9-0.1-19.3-0.1-1.6 0-2.5-0.6-3.4-1.9-7.3-11.5-14.7-22.9-21.9-34.3-1.4-2.3-3-3.4-5.7-3.1-1.8 0.3-3.6 0.2-5.4 0-2-0.1-2.6 0.6-2.6 2.6 0.1 11.2-0.1 22.5 0.1 33.7 0 2.5-0.6 3.3-3.2 3.2-5.2-0.2-10.5-0.1-15.7-0.1-1.8 0.1-2.4-0.5-2.4-2.4q0-52.2 0-104.5c0-1.9 0.6-2.4 2.4-2.4 13.8 0.1 27.5-0.1 41.3 0.2 13.1 0.4 23.9 5.4 30.8 17.2 3.5 6.1 4.5 12.8 4.1 19.8-0.8 14.6-7.9 24.7-21.8 29.8-0.3 0.1-0.5 0.3-1 0.6 1 1.6 1.9 3 2.9 4.6zm-37.5-47.9c0 8.9 0 17.7 0 26.7 1.1 0.1 1.9 0.2 2.6 0.2 5.5 0 11 0.1 16.5-0.1 2 0 4-0.3 5.9-0.8 7-1.7 11.3-8 11.2-15.8-0.1-7.2-4.9-13.5-11.8-14.4-6.5-0.9-13.1-0.8-19.7-0.9-5.5-0.1-4.6-0.6-4.7 5.1z"/><path  d="m400.2 105.3c3.1 10.1 3.6 20.2 0.2 30.1-8.1 24.3-32.5 29.9-49.3 21.8-2.6-1.3-4.8-3.2-7.9-5.2 0 1.9 0 3.4 0.1 4.9 0 1.3-0.3 2-1.8 2-5.4-0.1-10.9 0-16.3-0.1-0.5-0.1-1.1-1-1.6-1.6-0.1-0.2 0-0.6 0-1 0-34.4 0-68.9 0-103.4 0-2.5 0.6-3.3 3.2-3.2 5.5 0.1 11.1 0 17 0 0 13.6 0 26.9 0 41.1 9.6-9.3 20.5-11.1 32.2-8.1 12 3.1 19.5 11.4 24.2 22.7zm-44.9 35.3c10.5 3.5 19.8 0.2 24.6-8.8 2.4-4.4 2.7-9.2 2.2-14.1-1.2-12.3-12.4-20.2-24.4-16.9-7.8 2.1-13.5 9-14.3 17.1-1.1 10.6 2.9 18.3 11.9 22.7z"/><path  d="m269.3 186.3c-6.3 2.5-12.7 2.5-19.1 1.6-0.7-0.1-1.9-0.9-1.9-1.4-0.2-5.6-0.1-11.2-0.1-17 1.4 0.1 2.5 0.2 3.5 0.4 8.6 1.4 12.8-1 16.1-9 1.1-2.8 1.2-5.2 0-8.1-8.4-19.6-16.5-39.3-24.8-58.9-1.3-3.3-2.7-6.6-4.3-10.2 1.3-0.1 2.2-0.2 3.1-0.3 5.6 0 11.3 0.1 17 0 1.8 0 2.7 0.5 3.4 2.4 5.3 14.2 10.8 28.3 16.2 42.4 0.3 0.8 0.7 1.5 1.2 2.7 0.4-1 0.8-1.5 1-2 5.2-14.5 10.5-29 15.7-43.5 0.6-1.5 1.3-2 2.9-2 6.3 0.1 12.6 0 19.4 0-0.4 1.4-0.6 2.4-1 3.3-10.4 26.5-20.8 53.1-31.2 79.6-3 7.5-6.7 14.6-14.2 18.6-0.9 0.5-1.8 0.9-2.9 1.4z"/><path  d="m194.1 127.2c-15 0-29.7 0-44.7 0 0.2 3.3 1.5 5.9 3.3 8.2 4.4 5.6 10.5 7.3 17.3 7.4 6.7 0.1 12.6-2 17.8-6.1q1.1-0.9 2.2-1.7c0.2-0.1 0.5-0.1 0.9-0.2 2.9 3.8 5.8 7.7 8.6 11.8 0.3 0.5-0.2 2-0.7 2.6-6.6 6.2-14.5 9.8-23.4 10.9-11.2 1.4-21.9-0.3-31-7.3-9.9-7.7-14.4-18.1-14.6-30.5-0.3-14 4.3-25.9 16-34.2 19.7-14 52.4-6.7 57.2 24.5 0.6 3.7 0.5 7.6 0.6 11.4 0.1 1-0.1 2-0.2 3.2-3.1 0-6.1 0-9.3 0zm-43.2-18.5c-0.5 1.4-0.9 2.9-1.4 4.4 11.9 0 23.3 0 35 0-1.3-6.3-3.9-11.2-9.8-13.6-9.4-3.8-18.9-0.2-23.8 9.2z"/><path  d="m503.8 108c0 8.2 0 16.2 0 24.2q0 1.5 0.1 3c0.3 3.9 2.3 5.9 6.2 6.2 1.4 0 2.8 0 4.5 0 0 5.5 0 10.8-0.1 16.1 0 0.5-0.9 1.3-1.4 1.3-5.2-0.2-10.5 0.1-15.6-1-8.8-1.9-13.6-8.9-13.8-19.2-0.2-12-0.1-24-0.1-36q0-24.7 0-49.4c0-3.6 0-3.6 3.7-3.6 5.4 0 10.8 0 16.5 0 0 19.6 0 38.9 0 58.4z"/><path  d="m214.2 150.3c-2.8-4.3-3.2-8.9-3.2-13.6q0-30.7 0-61.5 0-11.2 0-22.4c0-1 0-1.9 0-3.2 1.8 0 3.5 0 5.1 0 4.2 0 8.3 0.1 12.5 0 2.1-0.1 2.7 0.6 2.7 2.6-0.1 25-0.1 50-0.1 75 0 2.5 0 5 0.1 7.5 0.1 4.7 2.1 6.6 6.8 6.8 1.1 0 2.3 0 3.8 0 0 3.9 0 7.6 0 11.3 0 6.1 0 6.1-6.2 6.3-5.5 0.1-10.9-0.1-15.7-3.2-2.1-1.5-3.8-3.6-5.8-5.6z"/><path  d="m465.2 68c0 21.9 0 43.6 0.1 65.2 0 6.7 2.3 8.7 9.1 8.2 0.4 0 0.8 0 1.5 0 0 5.4 0.1 10.8 0 16.2 0 0.4-0.8 1.1-1.3 1.2-6 0.4-12 0.6-17.7-1.6-6.6-2.4-10.2-7.3-11.4-14-0.4-2.2-0.5-4.5-0.5-6.7q0-42 0-84c0-0.8 0-1.6 0-2.7 6.8 0 13.3 0 20.2 0 0 6 0 12 0 18.2z"/><path  d="m430.1 137c0 7.3 0 14.4 0 21.6-6.8 0-13.4 0-20.1 0 0-25 0-49.9 0-75 6.6 0 13.1 0 20.1 0 0 17.7 0 35.4 0 53.4z"/><path  d="m415.6 73c-6-2.9-9-7.8-8.4-13.4 0.8-5.8 5.2-10.6 10.8-11.6 4.9-0.9 10.3 1.3 12.9 5.3 3.1 4.8 3 10.4-0.1 15-3 4.4-8 6.4-13.1 5.3-0.7-0.2-1.3-0.4-2.1-0.6z"/></svg>